<svg version="1.1" id="Layer_1" xmlns="http://www.w3.org/2000/svg" xmlns:xlink="http://www.w3.org/1999/xlink" x="0px" y="0px"
	 width="100%" viewBox="0 0 500 500" enable-background="new 0 0 500 500" xml:space="preserve">
<path fill="#000000" opacity="1.000000" stroke="none" 
	d="
M231.000000,501.000000 
	C154.000015,501.000000 77.500038,501.000000 1.000041,501.000000 
	C1.000027,334.333405 1.000027,167.666779 1.000014,1.000131 
	C167.666565,1.000087 334.333130,1.000087 500.999756,1.000044 
	C500.999847,167.666519 500.999847,334.333038 500.999939,500.999786 
	C411.166656,501.000000 321.333344,501.000000 231.000000,501.000000 
M333.451782,286.767761 
	C329.943573,282.075378 326.531647,277.306580 322.890503,272.719666 
	C320.751556,270.025116 318.248199,267.619904 314.985016,265.018280 
	C306.655396,265.012177 298.306976,265.336365 290.003906,264.863647 
	C285.715790,264.619476 283.349121,266.554779 281.157654,269.532562 
	C263.653717,293.316345 246.138763,317.092072 228.659637,340.894073 
	C225.408905,345.320770 222.304077,349.854584 218.665665,354.998108 
	C229.254883,354.998108 238.736389,355.156433 248.203568,354.858643 
	C250.002502,354.802063 252.307175,353.355652 253.425308,351.845001 
	C263.766052,337.874176 273.820068,323.691437 284.121307,309.690887 
	C289.556732,302.303528 295.317291,295.155426 301.542847,288.228912 
	C306.370514,294.689362 311.152405,301.185059 316.071655,307.575012 
	C316.875031,308.618561 318.281067,309.875610 319.414307,309.881256 
	C329.036621,309.929230 338.660217,309.710114 348.966431,309.772675 
	C349.640198,309.505310 350.585144,309.436890 350.948456,308.941742 
	C362.674011,292.960999 374.122314,276.771027 386.114929,260.994568 
	C392.063293,253.169449 395.821686,241.394531 409.712036,244.904434 
	C409.891113,244.949677 410.163971,244.623734 410.581848,244.345230 
	C407.962463,234.738464 405.331604,225.089569 402.592194,215.042542 
	C385.636902,224.958694 369.154388,234.598358 352.671844,244.238022 
	C352.731354,244.509216 352.790863,244.780426 352.850342,245.051620 
	C356.671600,245.051620 360.492859,245.051620 365.113403,245.051620 
	C362.424011,248.769531 360.266235,251.815170 358.044159,254.813141 
	C350.062927,265.581390 342.059906,276.333527 333.451782,286.767761 
M159.577881,360.061584 
	C160.051849,367.444397 160.111252,374.887390 161.171127,382.185120 
	C161.717667,385.948395 163.125259,390.418884 165.733017,392.898315 
	C174.393982,401.133087 185.668747,401.439697 196.698914,402.090363 
	C196.698914,333.619446 196.698914,265.903778 196.698914,198.162109 
	C184.539871,197.317703 172.941437,198.766159 161.768524,202.745651 
	C154.992828,205.158981 148.140533,207.672791 141.880356,211.146545 
	C131.591431,216.855804 121.069542,216.009537 110.648827,213.012985 
	C95.387718,208.624542 89.075966,194.413834 96.926292,180.882339 
	C101.845520,172.403107 108.810875,165.075317 115.114983,157.443024 
	C126.358391,143.830780 132.301208,128.134720 133.951401,110.717087 
	C134.288269,107.161636 134.000183,103.546974 134.000183,99.959610 
	C132.435226,100.398239 132.132568,100.775803 132.036636,101.200111 
	C128.492538,116.874001 121.865356,130.997192 109.622978,141.680557 
	C101.702591,148.592316 92.889999,154.477905 84.518936,160.877899 
	C72.340324,170.188873 65.807030,182.818207 65.172806,197.846451 
	C64.492981,213.954956 70.560974,228.154968 82.112709,239.298248 
	C87.895897,244.876938 95.288017,248.787735 101.305130,252.999756 
	C94.841881,252.999756 87.346527,252.999756 79.851173,252.999756 
	C72.289513,252.999756 64.727852,252.999756 56.759182,252.999756 
	C61.058002,264.294189 69.203934,270.927094 79.333733,274.544922 
	C92.682014,279.312317 106.074257,278.476929 118.085732,271.517395 
	C122.422508,280.581146 126.424393,289.686371 131.059753,298.456818 
	C137.813187,311.234863 145.524475,323.527802 151.837769,336.508881 
	C155.291290,343.609833 156.709793,351.700531 159.577881,360.061584 
M369.530762,373.000000 
	C367.427979,373.000000 365.325195,373.000000 363.116028,373.000000 
	C363.116028,369.506958 363.116028,366.551910 363.116028,364.883850 
	C364.984253,362.860229 366.240295,361.499756 368.360626,359.203064 
	C362.462280,359.203064 358.362000,359.203064 354.261719,359.203064 
	C353.981598,359.568542 353.701447,359.934021 353.421326,360.299500 
	C354.787872,361.588379 356.154388,362.877258 357.832367,364.459869 
	C357.832367,371.386871 357.832367,379.007843 357.832367,386.926636 
	C355.067261,386.887543 352.318878,387.041260 354.646637,390.861450 
	C358.611511,390.861450 362.570526,390.861450 368.356079,390.861450 
	C366.259888,388.541687 365.054230,387.207489 363.283234,385.247589 
	C363.283234,383.359039 363.283234,380.285065 363.283234,377.274109 
	C368.309723,377.274109 373.047913,377.274109 377.889282,377.274109 
	C377.889282,380.503693 377.889282,383.459595 377.889282,385.091492 
	C375.984833,387.169678 374.748474,388.518829 372.664276,390.793152 
	C378.550323,390.793152 382.650574,390.793152 386.750854,390.793152 
	C387.028320,390.424164 387.305786,390.055176 387.583252,389.686188 
	C386.192413,388.390167 384.801575,387.094177 383.171356,385.575073 
	C383.171356,378.600677 383.171356,370.979675 383.171356,363.071289 
	C385.971130,363.122192 388.668304,362.931519 386.359772,359.142334 
	C382.375305,359.142334 378.416046,359.142334 372.626587,359.142334 
	C374.741302,361.466492 375.954956,362.800385 377.711487,364.730865 
	C377.711487,366.652710 377.711487,369.726135 377.711487,373.000000 
	C375.118774,373.000000 372.809387,373.000000 369.530762,373.000000 
M221.000000,379.457092 
	C221.000000,375.787323 221.000000,372.117554 221.000000,367.844269 
	C225.598694,374.883514 229.969193,381.036072 233.720200,387.545624 
	C235.549988,390.720978 237.561417,391.520691 240.968384,390.667328 
	C240.968384,381.560120 240.968384,372.591309 240.968384,364.989777 
	C242.979202,362.850739 244.240112,361.509430 246.409592,359.201599 
	C240.812546,359.201599 237.040985,359.201599 233.269440,359.201599 
	C232.988770,359.567902 232.708115,359.934204 232.427460,360.300476 
	C233.806931,361.603027 235.186417,362.905579 236.576584,364.218231 
	C236.576584,370.039337 236.576584,376.306091 236.576584,382.788818 
	C232.681595,376.564270 228.821854,370.817322 225.411499,364.815063 
	C222.591965,359.852692 218.985809,357.510529 211.956238,359.857239 
	C213.814484,361.612152 215.188660,362.909912 216.823700,364.454041 
	C216.823700,371.397736 216.823700,379.027954 216.823700,386.934265 
	C213.937210,386.843658 211.403839,387.156677 213.614227,390.844360 
	C217.322556,390.844360 220.953369,390.844360 226.444168,390.844360 
	C224.240540,388.493195 222.980209,387.148499 221.000000,385.035706 
	C221.000000,384.395142 221.000000,382.409027 221.000000,379.457092 
M216.999985,240.279739 
	C216.419662,241.518921 215.952698,242.829803 215.227142,243.977142 
	C214.499908,245.127167 213.514587,246.113968 212.096619,247.834549 
	C217.354721,247.834549 220.986740,247.834549 224.618759,247.834549 
	C224.916672,247.491943 225.214569,247.149338 225.512482,246.806732 
	C224.231033,245.469101 222.949585,244.131454 221.356888,242.468918 
	C221.356888,237.379471 221.356888,231.417236 221.356888,225.382751 
	C225.625900,231.921783 230.008743,238.084320 233.757034,244.611267 
	C235.604401,247.828064 237.654419,248.448074 241.004791,247.661728 
	C241.004791,238.491425 241.004791,229.523331 241.004791,222.054886 
	C243.052460,219.788635 244.256775,218.455750 246.274368,216.222763 
	C240.743866,216.222763 236.972137,216.222763 233.200409,216.222763 
	C232.932159,216.604782 232.663925,216.986786 232.395676,217.368805 
	C233.833710,218.640793 235.271759,219.912781 236.784515,221.250854 
	C236.784515,227.060638 236.784515,233.282425 236.784515,240.070572 
	C232.740845,233.637772 228.766266,227.853088 225.370422,221.746552 
	C222.531845,216.642059 218.854065,214.596054 211.865616,216.911209 
	C213.874680,218.680527 215.287918,219.925125 217.000000,221.432922 
	C217.000000,227.002579 217.000000,233.165924 216.999985,240.279739 
M332.615051,390.111938 
	C333.918243,390.682098 335.176849,391.410675 336.533051,391.792694 
	C340.543396,392.922302 347.223846,390.897736 348.983002,388.138489 
	C353.023834,381.800446 350.996765,376.852905 343.151367,374.036407 
	C339.852692,372.852173 336.351410,372.089233 333.284363,370.481964 
	C332.231659,369.930267 331.400299,366.316956 331.878296,365.952576 
	C333.692657,364.569427 336.321442,362.889221 338.198364,363.310974 
	C340.377930,363.800690 343.077393,366.052002 343.772583,368.132874 
	C344.860382,371.389191 346.495850,371.054352 348.769501,370.832733 
	C348.769501,366.680298 348.769501,362.917267 348.769501,358.826324 
	C346.719482,359.283264 344.968567,360.021149 343.235291,359.981842 
	C340.340668,359.916168 337.455811,359.054474 334.569519,359.068939 
	C329.996857,359.091827 326.410553,362.203064 326.001190,365.980255 
	C325.421143,371.332977 327.310394,374.296448 332.423431,375.990906 
	C335.445679,376.992432 338.659515,377.612091 341.441498,379.065277 
	C342.990509,379.874390 343.830719,382.040527 344.990356,383.595093 
	C343.396729,384.729492 341.932281,386.540131 340.185638,386.873871 
	C334.518097,387.956665 330.712921,385.022186 329.428101,379.284515 
	C328.000916,379.284515 326.603851,379.284515 325.228638,379.284515 
	C325.228638,383.337646 325.228638,387.102081 325.228638,392.172729 
	C327.382355,390.623566 328.749878,389.639893 330.072235,388.688721 
	C330.509583,389.011230 331.168762,389.497375 332.615051,390.111938 
M300.000000,372.537262 
	C300.000000,377.180359 300.000000,381.823456 300.000000,384.917206 
	C297.932404,387.225891 296.739899,388.557465 294.765900,390.761597 
	C304.915222,390.761597 313.335388,390.761597 322.886353,390.761597 
	C321.855225,387.512085 320.986176,384.773285 320.117157,382.034515 
	C318.640533,383.496826 317.163910,384.959167 315.330017,386.775299 
	C312.536652,386.775299 308.926605,386.775299 305.222137,386.775299 
	C305.222137,383.476288 305.222137,380.405334 305.222137,376.960541 
	C309.192688,376.960541 312.948975,376.960541 317.032898,376.960541 
	C316.867859,375.368591 316.746460,374.197235 316.604858,372.831421 
	C312.596313,372.831421 308.979218,372.831421 305.199890,372.831421 
	C305.199890,369.522400 305.199890,366.452087 305.199890,363.191345 
	C309.147736,363.191345 312.895752,363.191345 316.706635,363.191345 
	C316.952667,364.908997 317.173645,366.451965 317.413849,368.129089 
	C319.135895,367.953583 320.533203,367.811157 321.833466,367.678650 
	C321.833466,364.670013 321.833466,362.054474 321.833466,359.221191 
	C313.254089,359.221191 304.839447,359.221191 294.636017,359.221191 
	C296.754333,361.497375 298.007477,362.843933 300.000000,364.984955 
	C300.000000,366.253204 300.000000,368.902588 300.000000,372.537262 
M304.000000,234.455276 
	C304.000000,237.439438 304.000000,240.423584 304.000000,242.599701 
	C302.207825,244.320221 300.877258,245.597580 298.585724,247.797485 
	C304.519318,247.797485 308.627838,247.797485 312.736328,247.797485 
	C313.016052,247.431900 313.295746,247.066315 313.575439,246.700729 
	C312.197968,245.398544 310.820465,244.096359 309.348297,242.704681 
	C309.348297,235.506561 309.348297,227.778259 309.348297,220.156677 
	C311.667267,220.156677 313.636658,220.156677 315.998627,220.156677 
	C315.998627,220.917023 315.780151,221.646469 316.039795,222.105392 
	C316.804657,223.457199 317.759003,224.701797 318.639191,225.988342 
	C319.426117,224.614258 320.584900,223.320923 320.905334,221.845505 
	C321.301086,220.023514 320.999969,218.050171 320.999969,216.299255 
	C310.933502,216.299255 301.529541,216.299255 292.146576,216.299255 
	C291.756897,226.128387 291.756897,226.128387 296.865234,225.409515 
	C296.981171,223.672440 297.097839,221.924225 297.207336,220.283234 
	C299.646271,220.283234 301.713348,220.283234 304.000000,220.283234 
	C304.000000,224.867340 304.000000,229.170456 304.000000,234.455276 
M272.030975,388.856415 
	C272.786835,389.570618 273.505402,390.848572 274.305023,390.901459 
	C277.755280,391.129730 281.229279,390.999054 284.694672,390.999054 
	C284.975342,390.574921 285.256012,390.150787 285.536682,389.726624 
	C284.203278,388.415344 282.869873,387.104034 281.331787,385.591461 
	C281.331787,378.534912 281.331787,370.794373 281.331787,363.148834 
	C283.638763,363.148834 285.609589,363.148834 287.998444,363.148834 
	C287.998444,363.896851 287.782928,364.618927 288.038971,365.077820 
	C288.797638,366.437408 289.742340,367.693207 290.614258,368.989594 
	C291.409485,367.622284 292.581665,366.337646 292.904175,364.866730 
	C293.304016,363.043182 292.999969,361.065277 292.999969,359.298920 
	C282.943085,359.298920 273.534912,359.298920 264.147461,359.298920 
	C263.755371,369.137939 263.755371,369.137939 268.860626,368.404724 
	C268.981476,366.665253 269.103088,364.915161 269.216095,363.288696 
	C271.654846,363.288696 273.722443,363.288696 276.000000,363.288696 
	C276.000000,369.879669 275.696899,376.204315 276.124603,382.479187 
	C276.346985,385.741547 275.043793,387.113373 272.030975,388.856415 
M268.000000,235.451324 
	C268.000000,238.100723 268.000000,240.750137 268.000000,242.009506 
	C266.002228,244.160721 264.753265,245.505630 262.598663,247.825699 
	C269.209442,247.825699 273.989899,247.825699 278.782227,247.825699 
	C279.852264,242.354050 274.763580,244.976562 273.196289,243.608337 
	C273.196289,240.272049 273.196289,237.323975 273.196289,234.005493 
	C276.798065,234.005493 280.227661,234.005493 283.996948,234.005493 
	C283.863342,232.421249 283.764435,231.248337 283.634064,229.702225 
	C279.865173,229.702225 276.459015,229.702225 273.353210,229.702225 
	C273.353210,226.215622 273.353210,223.141861 273.353210,220.168549 
	C277.336395,220.168549 280.965393,220.168549 284.841278,220.168549 
	C285.472382,222.236954 283.678436,226.967331 288.678986,224.465744 
	C288.678986,221.614532 288.678986,218.881195 288.678986,216.267792 
	C280.264343,216.267792 272.173157,216.267792 264.082001,216.267792 
	C263.832123,216.659073 263.582245,217.050354 263.332397,217.441650 
	C264.698639,218.636414 266.064911,219.831177 268.000000,221.523361 
	C268.000000,225.175476 268.000000,229.819366 268.000000,235.451324 
M335.465881,224.969727 
	C334.729553,223.398834 333.993225,221.827927 333.256927,220.257034 
	C333.647247,220.393829 334.037598,220.530640 334.427948,220.667435 
	C335.083008,219.334015 335.738098,218.000580 336.640656,216.163422 
	C331.898102,216.163422 328.120575,216.163422 323.140778,216.163422 
	C329.951263,224.768448 338.116394,232.065353 336.938416,243.544312 
	C336.540039,243.373886 336.141663,243.203476 335.743286,243.033066 
	C334.724915,244.395111 333.706573,245.757156 332.150757,247.838013 
	C337.367065,247.838013 340.991028,247.838013 344.967041,247.838013 
	C344.869415,246.589798 344.933838,244.632065 344.680359,244.590012 
	C340.944000,243.969971 342.242706,241.143158 341.983429,238.955521 
	C341.277649,233.001038 345.575562,229.145050 348.027100,224.540985 
	C348.925781,222.853287 350.455414,221.498871 351.713898,220.006470 
	C352.600647,218.954865 353.515411,217.926956 354.968262,216.254791 
	C349.619812,216.254791 345.868835,216.254791 340.787628,216.254791 
	C342.381897,218.426743 343.376312,219.781479 344.485840,221.293045 
	C342.922699,224.117310 341.191315,227.245560 339.198395,230.846359 
	C337.787262,228.487274 336.896973,226.998901 335.465881,224.969727 
M253.000000,228.551956 
	C253.000000,233.525314 253.000000,238.498657 253.000000,241.913391 
	C250.929382,244.229111 249.739487,245.559845 247.757980,247.775909 
	C253.270065,247.775909 257.037079,247.775909 260.804108,247.775909 
	C261.071564,247.393951 261.339020,247.011993 261.606476,246.630051 
	C260.169556,245.359222 258.732635,244.088394 257.188049,242.722321 
	C257.188049,235.545090 257.188049,227.923843 257.188049,220.302612 
	C257.528259,220.526001 257.868439,220.749390 258.208649,220.972778 
	C259.247864,219.618668 260.287109,218.264542 261.901520,216.160950 
	C256.651733,216.160950 253.025116,216.160950 249.398483,216.160950 
	C249.097153,216.500061 248.795807,216.839188 248.494476,217.178299 
	C249.759491,218.515442 251.024490,219.852570 253.000000,221.940704 
	C253.000000,222.943893 253.000000,225.260483 253.000000,228.551956 
M257.500946,363.081482 
	C260.809631,362.621643 260.809631,362.621643 260.488312,359.228760 
	C256.717865,359.228760 252.949371,359.228760 249.180878,359.228760 
	C248.916779,359.615234 248.652679,360.001709 248.388580,360.388184 
	C249.838974,361.650940 251.289352,362.913727 252.802734,364.231323 
	C252.802734,371.477905 252.802734,379.103333 252.802734,386.728760 
	C252.447357,386.503235 252.091965,386.277710 251.736588,386.052185 
	C250.723022,387.409180 249.709473,388.766174 248.170547,390.826538 
	C253.385818,390.826538 257.015625,390.826538 260.645416,390.826538 
	C260.939240,390.479919 261.233032,390.133301 261.526855,389.786713 
	C260.226807,388.453949 258.926758,387.121185 257.036560,385.183411 
	C257.036560,378.846802 257.036560,371.366211 257.500946,363.081482 
z"/>
<path fill="#FFFFFF" opacity="1.000000" stroke="none" 
	d="
M159.311920,359.703247 
	C156.709793,351.700531 155.291290,343.609833 151.837769,336.508881 
	C145.524475,323.527802 137.813187,311.234863 131.059753,298.456818 
	C126.424393,289.686371 122.422508,280.581146 118.085732,271.517395 
	C106.074257,278.476929 92.682014,279.312317 79.333733,274.544922 
	C69.203934,270.927094 61.058002,264.294189 56.759182,252.999756 
	C64.727852,252.999756 72.289513,252.999756 79.851173,252.999756 
	C87.346527,252.999756 94.841881,252.999756 101.305130,252.999756 
	C95.288017,248.787735 87.895897,244.876938 82.112709,239.298248 
	C70.560974,228.154968 64.492981,213.954956 65.172806,197.846451 
	C65.807030,182.818207 72.340324,170.188873 84.518936,160.877899 
	C92.889999,154.477905 101.702591,148.592316 109.622978,141.680557 
	C121.865356,130.997192 128.492538,116.874001 132.036636,101.200111 
	C132.132568,100.775803 132.435226,100.398239 134.000183,99.959610 
	C134.000183,103.546974 134.288269,107.161636 133.951401,110.717087 
	C132.301208,128.134720 126.358391,143.830780 115.114983,157.443024 
	C108.810875,165.075317 101.845520,172.403107 96.926292,180.882339 
	C89.075966,194.413834 95.387718,208.624542 110.648827,213.012985 
	C121.069542,216.009537 131.591431,216.855804 141.880356,211.146545 
	C148.140533,207.672791 154.992828,205.158981 161.768524,202.745651 
	C172.941437,198.766159 184.539871,197.317703 196.698914,198.162109 
	C196.698914,265.903778 196.698914,333.619446 196.698914,402.090363 
	C185.668747,401.439697 174.393982,401.133087 165.733017,392.898315 
	C163.125259,390.418884 161.717667,385.948395 161.171127,382.185120 
	C160.111252,374.887390 160.051849,367.444397 159.311920,359.703247 
M155.228165,314.275055 
	C167.027634,328.297882 172.808273,345.041016 176.665787,362.653320 
	C178.092773,339.562164 163.126190,308.565460 148.881409,305.273560 
	C151.038040,308.311401 152.941193,310.992218 155.228165,314.275055 
M169.548447,376.974304 
	C168.363876,379.458771 169.418213,380.499481 171.862442,381.193207 
	C176.582565,382.532898 181.221008,384.160309 185.194199,385.442780 
	C183.835144,379.974579 177.216995,375.485535 169.548447,376.974304 
z"/>
<path fill="#24B24C" opacity="1.000000" stroke="none" 
	d="
M300.931091,287.899323 
	C295.317291,295.155426 289.556732,302.303528 284.121307,309.690887 
	C273.820068,323.691437 263.766052,337.874176 253.425308,351.845001 
	C252.307175,353.355652 250.002502,354.802063 248.203568,354.858643 
	C238.736389,355.156433 229.254883,354.998108 218.665665,354.998108 
	C222.304077,349.854584 225.408905,345.320770 228.659637,340.894073 
	C246.138763,317.092072 263.653717,293.316345 281.157654,269.532562 
	C283.349121,266.554779 285.715790,264.619476 290.003906,264.863647 
	C298.306976,265.336365 306.655396,265.012177 315.357605,265.371765 
	C313.885437,268.281097 311.949432,270.776794 310.215790,273.405914 
	C307.057587,278.195282 304.019348,283.063812 300.931091,287.899323 
z"/>
<path fill="#24B24C" opacity="1.000000" stroke="none" 
	d="
M334.065094,287.091736 
	C342.059906,276.333527 350.062927,265.581390 358.044159,254.813141 
	C360.266235,251.815170 362.424011,248.769531 365.113403,245.051620 
	C360.492859,245.051620 356.671600,245.051620 352.850342,245.051620 
	C352.790863,244.780426 352.731354,244.509216 352.671844,244.238022 
	C369.154388,234.598358 385.636902,224.958694 402.592194,215.042542 
	C405.331604,225.089569 407.962463,234.738464 410.581848,244.345230 
	C410.163971,244.623734 409.891113,244.949677 409.712036,244.904434 
	C395.821686,241.394531 392.063293,253.169449 386.114929,260.994568 
	C374.122314,276.771027 362.674011,292.960999 350.948456,308.941742 
	C350.585144,309.436890 349.640198,309.505310 348.562866,309.342651 
	C346.839752,306.842682 345.532104,304.765045 344.198181,302.704376 
	C340.826782,297.496094 337.443573,292.295441 334.065094,287.091736 
z"/>
<path fill="#125A27" opacity="1.000000" stroke="none" 
	d="
M333.758423,286.929749 
	C337.443573,292.295441 340.826782,297.496094 344.198181,302.704376 
	C345.532104,304.765045 346.839752,306.842682 348.221375,309.241821 
	C338.660217,309.710114 329.036621,309.929230 319.414307,309.881256 
	C318.281067,309.875610 316.875031,308.618561 316.071655,307.575012 
	C311.152405,301.185059 306.370514,294.689362 301.236969,288.064117 
	C304.019348,283.063812 307.057587,278.195282 310.215790,273.405914 
	C311.949432,270.776794 313.885437,268.281097 315.819458,265.404907 
	C318.248199,267.619904 320.751556,270.025116 322.890503,272.719666 
	C326.531647,277.306580 329.943573,282.075378 333.758423,286.929749 
z"/>
<path fill="#FFFFFF" opacity="1.000000" stroke="none" 
	d="
M370.015381,373.000000 
	C372.809387,373.000000 375.118774,373.000000 377.711487,373.000000 
	C377.711487,369.726135 377.711487,366.652710 377.711487,364.730865 
	C375.954956,362.800385 374.741302,361.466492 372.626587,359.142334 
	C378.416046,359.142334 382.375305,359.142334 386.359772,359.142334 
	C388.668304,362.931519 385.971130,363.122192 383.171356,363.071289 
	C383.171356,370.979675 383.171356,378.600677 383.171356,385.575073 
	C384.801575,387.094177 386.192413,388.390167 387.583252,389.686188 
	C387.305786,390.055176 387.028320,390.424164 386.750854,390.793152 
	C382.650574,390.793152 378.550323,390.793152 372.664276,390.793152 
	C374.748474,388.518829 375.984833,387.169678 377.889282,385.091492 
	C377.889282,383.459595 377.889282,380.503693 377.889282,377.274109 
	C373.047913,377.274109 368.309723,377.274109 363.283234,377.274109 
	C363.283234,380.285065 363.283234,383.359039 363.283234,385.247589 
	C365.054230,387.207489 366.259888,388.541687 368.356079,390.861450 
	C362.570526,390.861450 358.611511,390.861450 354.646637,390.861450 
	C352.318878,387.041260 355.067261,386.887543 357.832367,386.926636 
	C357.832367,379.007843 357.832367,371.386871 357.832367,364.459869 
	C356.154388,362.877258 354.787872,361.588379 353.421326,360.299500 
	C353.701447,359.934021 353.981598,359.568542 354.261719,359.203064 
	C358.362000,359.203064 362.462280,359.203064 368.360626,359.203064 
	C366.240295,361.499756 364.984253,362.860229 363.116028,364.883850 
	C363.116028,366.551910 363.116028,369.506958 363.116028,373.000000 
	C365.325195,373.000000 367.427979,373.000000 370.015381,373.000000 
z"/>
<path fill="#FFFFFF" opacity="1.000000" stroke="none" 
	d="
M221.000000,379.940002 
	C221.000000,382.409027 221.000000,384.395142 221.000000,385.035706 
	C222.980209,387.148499 224.240540,388.493195 226.444168,390.844360 
	C220.953369,390.844360 217.322556,390.844360 213.614227,390.844360 
	C211.403839,387.156677 213.937210,386.843658 216.823700,386.934265 
	C216.823700,379.027954 216.823700,371.397736 216.823700,364.454041 
	C215.188660,362.909912 213.814484,361.612152 211.956238,359.857239 
	C218.985809,357.510529 222.591965,359.852692 225.411499,364.815063 
	C228.821854,370.817322 232.681595,376.564270 236.576584,382.788818 
	C236.576584,376.306091 236.576584,370.039337 236.576584,364.218231 
	C235.186417,362.905579 233.806931,361.603027 232.427460,360.300476 
	C232.708115,359.934204 232.988770,359.567902 233.269440,359.201599 
	C237.040985,359.201599 240.812546,359.201599 246.409592,359.201599 
	C244.240112,361.509430 242.979202,362.850739 240.968384,364.989777 
	C240.968384,372.591309 240.968384,381.560120 240.968384,390.667328 
	C237.561417,391.520691 235.549988,390.720978 233.720200,387.545624 
	C229.969193,381.036072 225.598694,374.883514 221.000000,367.844269 
	C221.000000,372.117554 221.000000,375.787323 221.000000,379.940002 
z"/>
<path fill="#FFFFFF" opacity="1.000000" stroke="none" 
	d="
M217.000000,239.804504 
	C217.000000,233.165924 217.000000,227.002579 217.000000,221.432922 
	C215.287918,219.925125 213.874680,218.680527 211.865616,216.911209 
	C218.854065,214.596054 222.531845,216.642059 225.370422,221.746552 
	C228.766266,227.853088 232.740845,233.637772 236.784515,240.070572 
	C236.784515,233.282425 236.784515,227.060638 236.784515,221.250854 
	C235.271759,219.912781 233.833710,218.640793 232.395676,217.368805 
	C232.663925,216.986786 232.932159,216.604782 233.200409,216.222763 
	C236.972137,216.222763 240.743866,216.222763 246.274368,216.222763 
	C244.256775,218.455750 243.052460,219.788635 241.004791,222.054886 
	C241.004791,229.523331 241.004791,238.491425 241.004791,247.661728 
	C237.654419,248.448074 235.604401,247.828064 233.757034,244.611267 
	C230.008743,238.084320 225.625900,231.921783 221.356888,225.382751 
	C221.356888,231.417236 221.356888,237.379471 221.356888,242.468918 
	C222.949585,244.131454 224.231033,245.469101 225.512482,246.806732 
	C225.214569,247.149338 224.916672,247.491943 224.618759,247.834549 
	C220.986740,247.834549 217.354721,247.834549 212.096619,247.834549 
	C213.514587,246.113968 214.499908,245.127167 215.227142,243.977142 
	C215.952698,242.829803 216.419662,241.518921 217.000000,239.804504 
z"/>
<path fill="#FFFFFF" opacity="1.000000" stroke="none" 
	d="
M332.221497,390.047729 
	C331.168762,389.497375 330.509583,389.011230 330.072235,388.688721 
	C328.749878,389.639893 327.382355,390.623566 325.228638,392.172729 
	C325.228638,387.102081 325.228638,383.337646 325.228638,379.284515 
	C326.603851,379.284515 328.000916,379.284515 329.428101,379.284515 
	C330.712921,385.022186 334.518097,387.956665 340.185638,386.873871 
	C341.932281,386.540131 343.396729,384.729492 344.990356,383.595093 
	C343.830719,382.040527 342.990509,379.874390 341.441498,379.065277 
	C338.659515,377.612091 335.445679,376.992432 332.423431,375.990906 
	C327.310394,374.296448 325.421143,371.332977 326.001190,365.980255 
	C326.410553,362.203064 329.996857,359.091827 334.569519,359.068939 
	C337.455811,359.054474 340.340668,359.916168 343.235291,359.981842 
	C344.968567,360.021149 346.719482,359.283264 348.769501,358.826324 
	C348.769501,362.917267 348.769501,366.680298 348.769501,370.832733 
	C346.495850,371.054352 344.860382,371.389191 343.772583,368.132874 
	C343.077393,366.052002 340.377930,363.800690 338.198364,363.310974 
	C336.321442,362.889221 333.692657,364.569427 331.878296,365.952576 
	C331.400299,366.316956 332.231659,369.930267 333.284363,370.481964 
	C336.351410,372.089233 339.852692,372.852173 343.151367,374.036407 
	C350.996765,376.852905 353.023834,381.800446 348.983002,388.138489 
	C347.223846,390.897736 340.543396,392.922302 336.533051,391.792694 
	C335.176849,391.410675 333.918243,390.682098 332.221497,390.047729 
z"/>
<path fill="#FFFFFF" opacity="1.000000" stroke="none" 
	d="
M300.000000,372.044617 
	C300.000000,368.902588 300.000000,366.253204 300.000000,364.984955 
	C298.007477,362.843933 296.754333,361.497375 294.636017,359.221191 
	C304.839447,359.221191 313.254089,359.221191 321.833466,359.221191 
	C321.833466,362.054474 321.833466,364.670013 321.833466,367.678650 
	C320.533203,367.811157 319.135895,367.953583 317.413849,368.129089 
	C317.173645,366.451965 316.952667,364.908997 316.706635,363.191345 
	C312.895752,363.191345 309.147736,363.191345 305.199890,363.191345 
	C305.199890,366.452087 305.199890,369.522400 305.199890,372.831421 
	C308.979218,372.831421 312.596313,372.831421 316.604858,372.831421 
	C316.746460,374.197235 316.867859,375.368591 317.032898,376.960541 
	C312.948975,376.960541 309.192688,376.960541 305.222137,376.960541 
	C305.222137,380.405334 305.222137,383.476288 305.222137,386.775299 
	C308.926605,386.775299 312.536652,386.775299 315.330017,386.775299 
	C317.163910,384.959167 318.640533,383.496826 320.117126,382.034485 
	C320.986176,384.773285 321.855225,387.512085 322.886353,390.761597 
	C313.335388,390.761597 304.915222,390.761597 294.765900,390.761597 
	C296.739899,388.557465 297.932404,387.225891 300.000000,384.917206 
	C300.000000,381.823456 300.000000,377.180359 300.000000,372.044617 
z"/>
<path fill="#FFFFFF" opacity="1.000000" stroke="none" 
	d="
M304.000000,233.964417 
	C304.000000,229.170456 304.000000,224.867340 304.000000,220.283234 
	C301.713348,220.283234 299.646271,220.283234 297.207336,220.283234 
	C297.097839,221.924225 296.981171,223.672440 296.865234,225.409515 
	C291.756897,226.128387 291.756897,226.128387 292.146576,216.299255 
	C301.529541,216.299255 310.933502,216.299255 320.999969,216.299255 
	C320.999969,218.050171 321.301086,220.023514 320.905334,221.845505 
	C320.584900,223.320923 319.426117,224.614258 318.639191,225.988342 
	C317.759003,224.701797 316.804657,223.457199 316.039795,222.105392 
	C315.780151,221.646469 315.998627,220.917023 315.998627,220.156677 
	C313.636658,220.156677 311.667267,220.156677 309.348297,220.156677 
	C309.348297,227.778259 309.348297,235.506561 309.348297,242.704681 
	C310.820465,244.096359 312.197968,245.398544 313.575439,246.700729 
	C313.295746,247.066315 313.016052,247.431900 312.736328,247.797485 
	C308.627838,247.797485 304.519318,247.797485 298.585724,247.797485 
	C300.877258,245.597580 302.207825,244.320221 304.000000,242.599701 
	C304.000000,240.423584 304.000000,237.439438 304.000000,233.964417 
z"/>
<path fill="#FFFFFF" opacity="1.000000" stroke="none" 
	d="
M272.231812,388.458679 
	C275.043793,387.113373 276.346985,385.741547 276.124603,382.479187 
	C275.696899,376.204315 276.000000,369.879669 276.000000,363.288696 
	C273.722443,363.288696 271.654846,363.288696 269.216095,363.288696 
	C269.103088,364.915161 268.981476,366.665253 268.860626,368.404724 
	C263.755371,369.137939 263.755371,369.137939 264.147461,359.298920 
	C273.534912,359.298920 282.943085,359.298920 292.999969,359.298920 
	C292.999969,361.065277 293.304016,363.043182 292.904175,364.866730 
	C292.581665,366.337646 291.409485,367.622284 290.614258,368.989594 
	C289.742340,367.693207 288.797638,366.437408 288.038971,365.077820 
	C287.782928,364.618927 287.998444,363.896851 287.998444,363.148834 
	C285.609589,363.148834 283.638763,363.148834 281.331787,363.148834 
	C281.331787,370.794373 281.331787,378.534912 281.331787,385.591461 
	C282.869873,387.104034 284.203278,388.415344 285.536682,389.726624 
	C285.256012,390.150787 284.975342,390.574921 284.694672,390.999054 
	C281.229279,390.999054 277.755280,391.129730 274.305023,390.901459 
	C273.505402,390.848572 272.786835,389.570618 272.231812,388.458679 
z"/>
<path fill="#FFFFFF" opacity="1.000000" stroke="none" 
	d="
M268.000000,234.957291 
	C268.000000,229.819366 268.000000,225.175476 268.000000,221.523361 
	C266.064911,219.831177 264.698639,218.636414 263.332397,217.441650 
	C263.582245,217.050354 263.832123,216.659073 264.082001,216.267792 
	C272.173157,216.267792 280.264343,216.267792 288.678986,216.267792 
	C288.678986,218.881195 288.678986,221.614532 288.678986,224.465744 
	C283.678436,226.967331 285.472382,222.236954 284.841278,220.168549 
	C280.965393,220.168549 277.336395,220.168549 273.353210,220.168549 
	C273.353210,223.141861 273.353210,226.215622 273.353210,229.702225 
	C276.459015,229.702225 279.865173,229.702225 283.634064,229.702225 
	C283.764435,231.248337 283.863342,232.421249 283.996948,234.005493 
	C280.227661,234.005493 276.798065,234.005493 273.196289,234.005493 
	C273.196289,237.323975 273.196289,240.272049 273.196289,243.608337 
	C274.763580,244.976562 279.852264,242.354050 278.782227,247.825699 
	C273.989899,247.825699 269.209442,247.825699 262.598663,247.825699 
	C264.753265,245.505630 266.002228,244.160721 268.000000,242.009506 
	C268.000000,240.750137 268.000000,238.100723 268.000000,234.957291 
z"/>
<path fill="#FFFFFF" opacity="1.000000" stroke="none" 
	d="
M335.736267,225.240143 
	C336.896973,226.998901 337.787262,228.487274 339.198395,230.846359 
	C341.191315,227.245560 342.922699,224.117310 344.485840,221.293045 
	C343.376312,219.781479 342.381897,218.426743 340.787628,216.254791 
	C345.868835,216.254791 349.619812,216.254791 354.968262,216.254791 
	C353.515411,217.926956 352.600647,218.954865 351.713898,220.006470 
	C350.455414,221.498871 348.925781,222.853287 348.027100,224.540985 
	C345.575562,229.145050 341.277649,233.001038 341.983429,238.955521 
	C342.242706,241.143158 340.944000,243.969971 344.680359,244.590012 
	C344.933838,244.632065 344.869415,246.589798 344.967041,247.838013 
	C340.991028,247.838013 337.367065,247.838013 332.150757,247.838013 
	C333.706573,245.757156 334.724915,244.395111 335.743286,243.033066 
	C336.141663,243.203476 336.540039,243.373886 336.938416,243.544312 
	C338.116394,232.065353 329.951263,224.768448 323.140778,216.163422 
	C328.120575,216.163422 331.898102,216.163422 336.640656,216.163422 
	C335.738098,218.000580 335.083008,219.334015 334.427948,220.667435 
	C334.037598,220.530640 333.647247,220.393829 333.256927,220.257034 
	C333.993225,221.827927 334.729553,223.398834 335.736267,225.240143 
z"/>
<path fill="#FFFFFF" opacity="1.000000" stroke="none" 
	d="
M253.000000,228.064514 
	C253.000000,225.260483 253.000000,222.943893 253.000000,221.940704 
	C251.024490,219.852570 249.759491,218.515442 248.494476,217.178299 
	C248.795807,216.839188 249.097153,216.500061 249.398483,216.160950 
	C253.025116,216.160950 256.651733,216.160950 261.901520,216.160950 
	C260.287109,218.264542 259.247864,219.618668 258.208649,220.972778 
	C257.868439,220.749390 257.528259,220.526001 257.188049,220.302612 
	C257.188049,227.923843 257.188049,235.545090 257.188049,242.722321 
	C258.732635,244.088394 260.169556,245.359222 261.606476,246.630051 
	C261.339020,247.011993 261.071564,247.393951 260.804108,247.775909 
	C257.037079,247.775909 253.270065,247.775909 247.757980,247.775909 
	C249.739487,245.559845 250.929382,244.229111 253.000000,241.913391 
	C253.000000,238.498657 253.000000,233.525314 253.000000,228.064514 
z"/>
<path fill="#FFFFFF" opacity="1.000000" stroke="none" 
	d="
M257.268738,363.483521 
	C257.036560,371.366211 257.036560,378.846802 257.036560,385.183411 
	C258.926758,387.121185 260.226807,388.453949 261.526855,389.786713 
	C261.233032,390.133301 260.939240,390.479919 260.645416,390.826538 
	C257.015625,390.826538 253.385818,390.826538 248.170547,390.826538 
	C249.709473,388.766174 250.723022,387.409180 251.736588,386.052185 
	C252.091965,386.277710 252.447357,386.503235 252.802734,386.728760 
	C252.802734,379.103333 252.802734,371.477905 252.802734,364.231323 
	C251.289352,362.913727 249.838974,361.650940 248.388580,360.388184 
	C248.652679,360.001709 248.916779,359.615234 249.180878,359.228760 
	C252.949371,359.228760 256.717865,359.228760 260.488312,359.228760 
	C260.809631,362.621643 260.809631,362.621643 257.268738,363.483521 
z"/>
<path fill="#88DC64" opacity="1.000000" stroke="none" 
	d="
M155.036255,313.974030 
	C152.941193,310.992218 151.038040,308.311401 148.881409,305.273560 
	C163.126190,308.565460 178.092773,339.562164 176.665787,362.653320 
	C172.808273,345.041016 167.027634,328.297882 155.036255,313.974030 
z"/>
<path fill="#88DC64" opacity="1.000000" stroke="none" 
	d="
M169.841858,376.686218 
	C177.216995,375.485535 183.835144,379.974579 185.194199,385.442780 
	C181.221008,384.160309 176.582565,382.532898 171.862442,381.193207 
	C169.418213,380.499481 168.363876,379.458771 169.841858,376.686218 
z"/>
</svg>